<svg id="visual" viewBox="0 0 900 600" width="900" height="600" xmlns="http://www.w3.org/2000/svg" xmlns:xlink="http://www.w3.org/1999/xlink" version="1.1"><rect x="0" y="0" width="900" height="600" fill="#1e1e1e"></rect><defs><linearGradient id="grad1_0" x1="33.3%" y1="0%" x2="100%" y2="100%"><stop offset="20%" stop-color="#26c485" stop-opacity="1"></stop><stop offset="80%" stop-color="#26c485" stop-opacity="1"></stop></linearGradient></defs><defs><linearGradient id="grad1_1" x1="33.3%" y1="0%" x2="100%" y2="100%"><stop offset="20%" stop-color="#26c485" stop-opacity="1"></stop><stop offset="80%" stop-color="#2fa06f" stop-opacity="1"></stop></linearGradient></defs><defs><linearGradient id="grad1_2" x1="33.3%" y1="0%" x2="100%" y2="100%"><stop offset="20%" stop-color="#317c59" stop-opacity="1"></stop><stop offset="80%" stop-color="#2fa06f" stop-opacity="1"></stop></linearGradient></defs><defs><linearGradient id="grad1_3" x1="33.3%" y1="0%" x2="100%" y2="100%"><stop offset="20%" stop-color="#317c59" stop-opacity="1"></stop><stop offset="80%" stop-color="#2e5b44" stop-opacity="1"></stop></linearGradient></defs><defs><linearGradient id="grad1_4" x1="33.3%" y1="0%" x2="100%" y2="100%"><stop offset="20%" stop-color="#283b31" stop-opacity="1"></stop><stop offset="80%" stop-color="#2e5b44" stop-opacity="1"></stop></linearGradient></defs><defs><linearGradient id="grad1_5" x1="33.3%" y1="0%" x2="100%" y2="100%"><stop offset="20%" stop-color="#283b31" stop-opacity="1"></stop><stop offset="80%" stop-color="#1e1e1e" stop-opacity="1"></stop></linearGradient></defs><defs><linearGradient id="grad2_0" x1="0%" y1="0%" x2="66.7%" y2="100%"><stop offset="20%" stop-color="#26c485" stop-opacity="1"></stop><stop offset="80%" stop-color="#26c485" stop-opacity="1"></stop></linearGradient></defs><defs><linearGradient id="grad2_1" x1="0%" y1="0%" x2="66.7%" y2="100%"><stop offset="20%" stop-color="#2fa06f" stop-opacity="1"></stop><stop offset="80%" stop-color="#26c485" stop-opacity="1"></stop></linearGradient></defs><defs><linearGradient id="grad2_2" x1="0%" y1="0%" x2="66.7%" y2="100%"><stop offset="20%" stop-color="#2fa06f" stop-opacity="1"></stop><stop offset="80%" stop-color="#317c59" stop-opacity="1"></stop></linearGradient></defs><defs><linearGradient id="grad2_3" x1="0%" y1="0%" x2="66.7%" y2="100%"><stop offset="20%" stop-color="#2e5b44" stop-opacity="1"></stop><stop offset="80%" stop-color="#317c59" stop-opacity="1"></stop></linearGradient></defs><defs><linearGradient id="grad2_4" x1="0%" y1="0%" x2="66.7%" y2="100%"><stop offset="20%" stop-color="#2e5b44" stop-opacity="1"></stop><stop offset="80%" stop-color="#283b31" stop-opacity="1"></stop></linearGradient></defs><defs><linearGradient id="grad2_5" x1="0%" y1="0%" x2="66.7%" y2="100%"><stop offset="20%" stop-color="#1e1e1e" stop-opacity="1"></stop><stop offset="80%" stop-color="#283b31" stop-opacity="1"></stop></linearGradient></defs><g transform="translate(900, 0)"><path d="M0 351.5C-23 358.2 -46 364.9 -61 346.2C-76.1 327.5 -83.3 283.4 -96.1 264.1C-109 244.7 -127.5 250.2 -141 244.2C-154.5 238.2 -163 220.8 -178.1 212.2C-193.1 203.6 -214.7 203.7 -235.9 198C-257.2 192.3 -278 180.7 -278 160.5C-278 140.3 -257.1 111.6 -254.7 92.7C-252.2 73.7 -268.3 64.5 -287.6 50.7C-306.8 36.9 -329.2 18.4 -351.5 0L0 0Z" fill="#232c27"></path><path d="M0 293C-19.2 298.5 -38.3 304.1 -50.9 288.5C-63.4 272.9 -69.4 236.1 -80.1 220C-90.8 203.9 -106.2 208.5 -117.5 203.5C-128.8 198.5 -135.8 184 -148.4 176.8C-160.9 169.6 -178.9 169.8 -196.6 165C-214.3 160.2 -231.7 150.5 -231.7 133.8C-231.6 117 -214.2 93 -212.2 77.2C-210.2 61.4 -223.6 53.8 -239.6 42.3C-255.7 30.7 -274.3 15.4 -293 0L0 0Z" fill="#2b4b3a"></path><path d="M0 234.4C-15.3 238.8 -30.7 243.3 -40.7 230.8C-50.7 218.3 -55.5 188.9 -64.1 176C-72.6 163.2 -85 166.8 -94 162.8C-103 158.8 -108.7 147.2 -118.7 141.5C-128.7 135.7 -143.1 135.8 -157.3 132C-171.4 128.2 -185.3 120.4 -185.3 107C-185.3 93.6 -171.4 74.4 -169.8 61.8C-168.2 49.2 -178.9 43 -191.7 33.8C-204.5 24.6 -219.4 12.3 -234.4 0L0 0Z" fill="#306c4f"></path><path d="M0 175.8C-11.5 179.1 -23 182.5 -30.5 173.1C-38.1 163.7 -41.6 141.7 -48.1 132C-54.5 122.4 -63.7 125.1 -70.5 122.1C-77.3 119.1 -81.5 110.4 -89 106.1C-96.6 101.8 -107.4 101.9 -118 99C-128.6 96.1 -139 90.3 -139 80.3C-139 70.2 -128.5 55.8 -127.3 46.3C-126.1 36.9 -134.2 32.3 -143.8 25.4C-153.4 18.4 -164.6 9.2 -175.8 0L0 0Z" fill="#318e64"></path><path d="M0 117.2C-7.7 119.4 -15.3 121.6 -20.3 115.4C-25.4 109.2 -27.8 94.5 -32 88C-36.3 81.6 -42.5 83.4 -47 81.4C-51.5 79.4 -54.3 73.6 -59.4 70.7C-64.4 67.9 -71.6 67.9 -78.6 66C-85.7 64.1 -92.7 60.2 -92.7 53.5C-92.7 46.8 -85.7 37.2 -84.9 30.9C-84.1 24.6 -89.4 21.5 -95.9 16.9C-102.3 12.3 -109.7 6.1 -117.2 0L0 0Z" fill="#2cb27a"></path><path d="M0 58.6C-3.8 59.7 -7.7 60.8 -10.2 57.7C-12.7 54.6 -13.9 47.2 -16 44C-18.2 40.8 -21.2 41.7 -23.5 40.7C-25.8 39.7 -27.2 36.8 -29.7 35.4C-32.2 33.9 -35.8 34 -39.3 33C-42.9 32 -46.3 30.1 -46.3 26.8C-46.3 23.4 -42.8 18.6 -42.4 15.4C-42 12.3 -44.7 10.8 -47.9 8.5C-51.1 6.1 -54.9 3.1 -58.6 0L0 0Z" fill="#26c485"></path></g><g transform="translate(0, 600)"><path d="M0 -351.5C9.6 -297.1 19.2 -242.6 44.5 -252.1C69.7 -261.6 110.6 -335.1 117.7 -323.3C124.7 -311.4 97.9 -214.2 114.5 -198.3C131.1 -182.4 191 -247.8 216 -257.4C240.9 -267 230.9 -220.9 234.4 -196.7C237.9 -172.5 255 -170.3 282.3 -163C309.7 -155.7 347.3 -143.3 330.3 -120.2C313.4 -97.2 241.9 -63.5 236.4 -41.7C230.8 -19.9 291.2 -9.9 351.5 0L0 0Z" fill="#232c27"></path><path d="M0 -293C8 -247.6 16 -202.2 37 -210.1C58.1 -218 92.2 -279.3 98 -269.4C103.9 -259.5 81.6 -178.5 95.4 -165.3C109.2 -152 159.2 -206.5 180 -214.5C200.8 -222.5 192.4 -184.1 195.3 -163.9C198.3 -143.8 212.5 -141.9 235.3 -135.8C258.1 -129.7 289.4 -119.4 275.3 -100.2C261.2 -81 201.6 -52.9 197 -34.7C192.3 -16.6 242.6 -8.3 293 0L0 0Z" fill="#2b4b3a"></path><path d="M0 -234.4C6.4 -198 12.8 -161.7 29.6 -168.1C46.5 -174.4 73.7 -223.4 78.4 -215.5C83.1 -207.6 65.3 -142.8 76.3 -132.2C87.4 -121.6 127.3 -165.2 144 -171.6C160.6 -178 153.9 -147.2 156.3 -131.1C158.6 -115 170 -113.5 188.2 -108.7C206.4 -103.8 231.5 -95.5 220.2 -80.2C208.9 -64.8 161.3 -42.3 157.6 -27.8C153.9 -13.2 194.1 -6.6 234.4 0L0 0Z" fill="#306c4f"></path><path d="M0 -175.8C4.8 -148.5 9.6 -121.3 22.2 -126.1C34.9 -130.8 55.3 -167.6 58.8 -161.6C62.4 -155.7 49 -107.1 57.2 -99.2C65.5 -91.2 95.5 -123.9 108 -128.7C120.5 -133.5 115.4 -110.4 117.2 -98.3C119 -86.3 127.5 -85.2 141.2 -81.5C154.8 -77.8 173.6 -71.6 165.2 -60.1C156.7 -48.6 121 -31.7 118.2 -20.8C115.4 -9.9 145.6 -5 175.8 0L0 0Z" fill="#318e64"></path><path d="M0 -117.2C3.2 -99 6.4 -80.9 14.8 -84C23.2 -87.2 36.9 -111.7 39.2 -107.8C41.6 -103.8 32.6 -71.4 38.2 -66.1C43.7 -60.8 63.7 -82.6 72 -85.8C80.3 -89 77 -73.6 78.1 -65.6C79.3 -57.5 85 -56.8 94.1 -54.3C103.2 -51.9 115.8 -47.8 110.1 -40.1C104.5 -32.4 80.6 -21.2 78.8 -13.9C76.9 -6.6 97.1 -3.3 117.2 0L0 0Z" fill="#2cb27a"></path><path d="M0 -58.6C1.6 -49.5 3.2 -40.4 7.4 -42C11.6 -43.6 18.4 -55.9 19.6 -53.9C20.8 -51.9 16.3 -35.7 19.1 -33.1C21.8 -30.4 31.8 -41.3 36 -42.9C40.2 -44.5 38.5 -36.8 39.1 -32.8C39.7 -28.8 42.5 -28.4 47.1 -27.2C51.6 -25.9 57.9 -23.9 55.1 -20C52.2 -16.2 40.3 -10.6 39.4 -6.9C38.5 -3.3 48.5 -1.7 58.6 0L0 0Z" fill="#26c485"></path></g></svg>