<?xml version="1.0" encoding="UTF-8" standalone="no"?>
<!-- Created with Inkscape (http://www.inkscape.org/) -->

<svg
   width="512"
   height="512"
   viewBox="0 0 512 512"
   version="1.1"
   id="svg1"
   inkscape:version="1.3.2 (091e20e, 2023-11-25, custom)"
   sodipodi:docname="logo.svg"
   inkscape:export-filename="logo.png"
   inkscape:export-xdpi="96"
   inkscape:export-ydpi="96"
   xmlns:inkscape="http://www.inkscape.org/namespaces/inkscape"
   xmlns:sodipodi="http://sodipodi.sourceforge.net/DTD/sodipodi-0.dtd"
   xmlns:xlink="http://www.w3.org/1999/xlink"
   xmlns="http://www.w3.org/2000/svg"
   xmlns:svg="http://www.w3.org/2000/svg">
  <sodipodi:namedview
     id="namedview1"
     pagecolor="#ffffff"
     bordercolor="#000000"
     borderopacity="0.25"
     inkscape:showpageshadow="2"
     inkscape:pageopacity="0.0"
     inkscape:pagecheckerboard="0"
     inkscape:deskcolor="#d1d1d1"
     inkscape:document-units="px"
     inkscape:zoom="0.48925781"
     inkscape:cx="210.52295"
     inkscape:cy="225.8523"
     inkscape:window-width="1366"
     inkscape:window-height="697"
     inkscape:window-x="-8"
     inkscape:window-y="-8"
     inkscape:window-maximized="1"
     inkscape:current-layer="layer1" />
  <defs
     id="defs1">
    <linearGradient
       id="linearGradient8"
       inkscape:collect="always">
      <stop
         style="stop-color:#1f9564;stop-opacity:1;"
         offset="0"
         id="stop9" />
      <stop
         style="stop-color:#2aca92;stop-opacity:1;"
         offset="1"
         id="stop10" />
    </linearGradient>
    <linearGradient
       id="linearGradient7"
       inkscape:collect="always">
      <stop
         style="stop-color:#1e1e1e;stop-opacity:1;"
         offset="0"
         id="stop7" />
      <stop
         style="stop-color:#1b1b1b;stop-opacity:1;"
         offset="1"
         id="stop8" />
    </linearGradient>
    <radialGradient
       inkscape:collect="always"
       xlink:href="#linearGradient7"
       id="radialGradient8"
       cx="256"
       cy="256"
       fx="256"
       fy="256"
       r="254.36649"
       gradientUnits="userSpaceOnUse" />
    <radialGradient
       inkscape:collect="always"
       xlink:href="#linearGradient8"
       id="radialGradient10"
       cx="33.301245"
       cy="36.36465"
       fx="33.301245"
       fy="36.36465"
       r="27.859834"
       gradientTransform="matrix(1,0,0,0.91043793,0,3.2568933)"
       gradientUnits="userSpaceOnUse" />
  </defs>
  <circle
     style="fill:url(#radialGradient8);stroke:#ff0c0c;stroke-width:0;stroke-linejoin:round;paint-order:markers stroke fill;fill-opacity:1"
     id="path7"
     cx="256"
     cy="256"
     r="254.36649" />
  <g
     inkscape:groupmode="layer"
     id="layer2"
     inkscape:label="Camada 2" />
  <g
     inkscape:label="Camada 1"
     inkscape:groupmode="layer"
     id="layer1"
     style="display:inline">
    <g
       id="line"
       transform="matrix(6.6026366,0,0,6.6026366,20.123974,15.89743)"
       style="display:inline;stroke:url(#radialGradient10);stroke-opacity:1">
      <path
         fill="none"
         stroke="#000000"
         stroke-linecap="round"
         stroke-linejoin="round"
         stroke-width="2"
         d="m 58.4167,34.6667 c 0.6667,1.6979 0.8506,2.9638 0.5159,4.5011 l -1.1322,5.2009 1.9496,6.1068 c 0,0 0.1206,4.7698 0.0014,8.2786 -0.0369,1.087 -0.9494,1.9752 -2.0371,1.9751 h -0.3531 c -1.3464,0 -1.9256,-1.3248 -1.9256,-2.6712 l -0.8522,-8.3913 c 0,0 -7.4907,-5.4667 -6.4583,-13.6042"
         id="path1"
         style="stroke:url(#radialGradient10);stroke-opacity:1" />
      <path
         fill="none"
         stroke="#000000"
         stroke-linecap="round"
         stroke-linejoin="round"
         stroke-width="2"
         d="M 33.2655,45.25 C 37.0988,45.0448 44.5,45.25 48.25,42.5625"
         id="path2"
         style="stroke:url(#radialGradient10);stroke-opacity:1" />
      <path
         fill="none"
         stroke="#000000"
         stroke-linecap="round"
         stroke-linejoin="round"
         stroke-width="2"
         d="m 51.3753,12 c 5.7603,1.5458 8.0746,4.2902 8.6494,7.2047 1.0392,5.269 -4.012,9.798 -9.2239,8.5024 C 48.2751,27.0793 46.152,27.2642 46.152,27.2642 L 27.75,27.125 C 26.0625,19 21.3027,17.56 21.3027,17.56 c -0.726,-4.6648 -3.2625,-5.4159 -4.0605,-5.5368 -0.1336,-0.0202 -0.2558,0.0704 -0.2751,0.2041 l -0.5352,3.7024 c -0.0784,0.5421 -0.4973,0.9719 -1.0372,1.0641 l -0.59,0.1008 c -0.7639,0.1305 -1.4727,0.4822 -2.0386,1.0117 l -0.894,0.8364 c -0.3126,0.2925 -0.7119,0.4754 -1.1376,0.5212 l -3.4582,0.372 C 6.515,19.9178 6.2972,21.9597 6.5931,22.666 l 0.6306,0.8521 c 0.2896,0.6913 0.9063,1.1916 1.6425,1.3325 l 6.4671,0.7328 c 0,0 -1,13.1667 2.7292,15.1667 8.1309,4.3607 4.4071,16.5216 4.4071,16.5216 -0.8217,1.4362 -0.1868,3.4576 1.4679,3.4576 h 0.0015 c 0.7939,0 1.5235,-0.4367 1.8987,-1.1364 l 2.0998,-5.4678 1.3773,-9.1448 c 0.1081,-0.7178 -0.0364,-1.4427 -0.3653,-2.0898 -0.576,-1.1333 -1.2539,-3.3607 -0.137,-6.5258"
         id="path3"
         style="stroke:url(#radialGradient10);stroke-opacity:1" />
      <path
         fill="none"
         stroke="#000000"
         stroke-linecap="round"
         stroke-linejoin="round"
         stroke-width="2"
         d="m 15.9846,39.0505 -4.3515,6.655 c -0.3212,0.4697 -0.5044,1.03 -0.5192,1.6187 -0.044,1.7553 -0.2547,5.5414 2.9991,7.69 0.8545,0.5642 2.4644,0.6389 3.3141,0.1114 0.7175,-0.4455 1.3028,-1.2911 0.7739,-2.8914"
         id="path4"
         style="stroke:url(#radialGradient10);stroke-opacity:1" />
      <line
         x1="20.284"
         x2="15.875"
         y1="44.1866"
         y2="47.266399"
         fill="none"
         stroke="#000000"
         stroke-linecap="round"
         stroke-linejoin="round"
         stroke-width="2"
         id="line4"
         style="stroke:url(#radialGradient10);stroke-opacity:1" />
      <path
         fill="none"
         stroke="#000000"
         stroke-linecap="round"
         stroke-linejoin="round"
         stroke-width="2"
         d="m 46.1667,47.2664 c 0.4329,1.5669 3.0772,3.003 4.25,3.7336 0,0 -0.9357,5.3422 -1.0698,7.1428 -0.0484,0.6505 0.1869,1.281 0.5906,1.7322 1.0625,1.1875 2.4301,0.6653 2.4301,0.6653"
         id="path5"
         style="stroke:url(#radialGradient10);stroke-opacity:1" />
    </g>
  </g>
</svg>
